<svg width="25" height="24" viewBox="0 0 25 24" fill="none" xmlns="http://www.w3.org/2000/svg">
<g clip-path="url(#clip0_741_3466)">
<path d="M23.8975 10.1025C23.7921 9.99717 23.6491 9.938 23.5 9.938C23.351 9.938 23.208 9.99717 23.1025 10.1025L18.3822 14.8219C18.3471 14.8568 18.2996 14.8764 18.25 14.8764C18.2005 14.8764 18.153 14.8568 18.1178 14.8219L10.1782 6.88219C10.1432 6.84706 10.1236 6.79954 10.1236 6.75001C10.1236 6.70047 10.1432 6.65295 10.1782 6.61782L14.8975 1.89751C14.9969 1.79088 15.051 1.64984 15.0484 1.50411C15.0458 1.35839 14.9868 1.21935 14.8837 1.11629C14.7807 1.01323 14.6417 0.954197 14.4959 0.951626C14.3502 0.949055 14.2092 1.00315 14.1025 1.10251L9.38222 5.82188C9.16719 6.03715 9.03364 6.32044 9.00439 6.6233C8.97515 6.92615 9.05204 7.22976 9.22191 7.48219L7.13222 9.57188C7.01033 9.69376 6.91364 9.83846 6.84767 9.9977C6.7817 10.157 6.74775 10.3276 6.74775 10.5C6.74775 10.6724 6.7817 10.8431 6.84767 11.0023C6.91364 11.1616 7.01033 11.3063 7.13222 11.4281L7.70409 12L2.10253 17.6025C2.03483 17.6703 1.98556 17.7542 1.95939 17.8464C1.93322 17.9385 1.93101 18.0358 1.95298 18.1291C1.97496 18.2223 2.02038 18.3084 2.08494 18.3792C2.1495 18.4499 2.23107 18.503 2.32191 18.5334L9.07191 20.7834C9.17101 20.8165 9.27736 20.8212 9.37903 20.7972C9.4807 20.7732 9.57367 20.7214 9.64753 20.6475L13 17.2959L13.5719 17.8678C13.6938 17.9897 13.8385 18.0864 13.9977 18.1524C14.157 18.2183 14.3277 18.2523 14.5 18.2523C14.6724 18.2523 14.8431 18.2183 15.0023 18.1524C15.1616 18.0864 15.3063 17.9897 15.4282 17.8678L17.5169 15.7781C17.7694 15.9482 18.0732 16.0253 18.3763 15.996C18.6794 15.9668 18.9628 15.8331 19.1782 15.6178L23.8975 10.8975C24.0029 10.792 24.062 10.6491 24.062 10.5C24.062 10.3509 24.0029 10.208 23.8975 10.1025ZM9.09816 19.6069L3.54159 17.7544L8.50003 12.7959L12.2041 16.5L9.09816 19.6069ZM14.6294 17.0756C14.5943 17.1106 14.5468 17.1302 14.4972 17.1302C14.4477 17.1302 14.4002 17.1106 14.365 17.0756L13.3947 16.1063L8.89472 11.6063L7.92816 10.6322C7.89323 10.5971 7.87363 10.5495 7.87363 10.5C7.87363 10.4505 7.89323 10.4029 7.92816 10.3678L10 8.29594L16.7041 15L14.6294 17.0756Z" fill="#010101"/>
</g>
<defs>
<clipPath id="clip0_741_3466">
<rect width="24" height="24" fill="white" transform="translate(0.25)"/>
</clipPath>
</defs>
</svg>
