<svg width="43" height="43" viewBox="0 0 43 43" fill="none" xmlns="http://www.w3.org/2000/svg">
<circle cx="21.5" cy="21.5" r="21" stroke="#010101"/>
<path d="M26.7933 11.6062H17.2066C14.1133 11.6062 11.6062 14.1138 11.6062 17.2071V26.7929C11.6062 29.8862 14.1138 32.3938 17.2071 32.3938H26.7929C29.8862 32.3938 32.3938 29.8862 32.3938 26.7929V17.2071C32.3938 14.1138 29.8866 11.6062 26.7933 11.6062Z" stroke="#010101" stroke-width="0.75" stroke-miterlimit="10"/>
<path d="M22 27.0177C24.7712 27.0177 27.0177 24.7712 27.0177 22C27.0177 19.2287 24.7712 16.9822 22 16.9822C19.2287 16.9822 16.9822 19.2287 16.9822 22C16.9822 24.7712 19.2287 27.0177 22 27.0177Z" stroke="#010101" stroke-width="0.666667" stroke-miterlimit="10"/>
<path d="M28.0929 16.9823C28.6867 16.9823 29.168 16.5009 29.168 15.9071C29.168 15.3134 28.6867 14.832 28.0929 14.832C27.4992 14.832 27.0178 15.3134 27.0178 15.9071C27.0178 16.5009 27.4992 16.9823 28.0929 16.9823Z" fill="#010101"/>
</svg>
