<svg width="52" height="52" viewBox="0 0 52 52" fill="none" xmlns="http://www.w3.org/2000/svg">
<g clip-path="url(#clip0_272_1039)">
<path opacity="0.2" d="M27.625 35.75L19.5 43.875L4.875 39L17.875 26L27.625 35.75Z" fill="#7FC8A9"/>
<path d="M51.5248 21.6003C51.3738 21.4492 51.1946 21.3294 50.9974 21.2476C50.8001 21.1658 50.5886 21.1237 50.3751 21.1237C50.1615 21.1237 49.9501 21.1658 49.7528 21.2476C49.5555 21.3294 49.3763 21.4492 49.2254 21.6003L39.0001 31.8277L22.2748 15.1003L21.7974 14.625L32.0248 4.39968C32.1757 4.2487 32.2955 4.06946 32.3772 3.87219C32.4589 3.67493 32.501 3.46351 32.501 3.24999C32.501 3.03647 32.4589 2.82505 32.3772 2.62778C32.2955 2.43052 32.1757 2.25128 32.0248 2.1003C31.8738 1.94932 31.6945 1.82956 31.4973 1.74785C31.3 1.66614 31.0886 1.62408 30.8751 1.62408C30.6616 1.62408 30.4501 1.66614 30.2529 1.74785C30.0556 1.82956 29.8764 1.94932 29.7254 2.1003L19.5001 12.3276C19.0084 12.8194 18.6874 13.4559 18.5843 14.1437C18.4812 14.8314 18.6014 15.5341 18.9273 16.1484L14.6251 20.4526C14.016 21.0621 13.6739 21.8884 13.6739 22.75C13.6739 23.6116 14.016 24.4379 14.6251 25.0473L15.5777 26L3.72539 37.8503C3.52935 38.0462 3.38668 38.289 3.31092 38.5555C3.23516 38.8221 3.22884 39.1036 3.29255 39.3733C3.35626 39.6431 3.48789 39.892 3.67493 40.0965C3.86197 40.301 4.0982 40.4542 4.36117 40.5417L18.9862 45.4167C19.1518 45.4723 19.3254 45.5004 19.5001 45.5C19.7135 45.5002 19.9249 45.4583 20.1222 45.3767C20.3195 45.2952 20.4987 45.1755 20.6498 45.0247L27.6251 38.0473L28.5777 39C29.1872 39.609 30.0135 39.9511 30.8751 39.9511C31.7367 39.9511 32.563 39.609 33.1724 39L37.4746 34.6978C38.0892 35.0242 38.7923 35.1446 39.4804 35.0415C40.1686 34.9384 40.8055 34.6171 41.2974 34.125L51.5248 23.8997C51.6758 23.7488 51.7957 23.5695 51.8775 23.3723C51.9593 23.175 52.0014 22.9635 52.0014 22.75C52.0014 22.5364 51.9593 22.325 51.8775 22.1277C51.7957 21.9304 51.6758 21.7512 51.5248 21.6003ZM19.0613 42.0164L7.88945 38.2891L17.8751 28.2973L25.3277 35.75L19.0613 42.0164ZM30.8751 36.7026L28.7748 34.6003L19.0248 24.8503L16.9224 22.75L21.1251 18.5473L35.0777 32.5L30.8751 36.7026Z" fill="#7FC8A9"/>
<rect x="18.3838" y="43.0707" width="31.5152" height="2.10101" rx="1.05051" fill="#7FC8A9"/>
</g>
<defs>
<clipPath id="clip0_272_1039">
<rect width="52" height="52" fill="white"/>
</clipPath>
</defs>
</svg>
