<svg width="52" height="52" viewBox="0 0 52 52" fill="none" xmlns="http://www.w3.org/2000/svg">
<mask id="path-1-inside-1_272_1103" fill="white">
<path d="M31.7402 39.5065C31.7402 40.349 31.5743 41.1832 31.2519 41.9616C30.9295 42.74 30.4569 43.4472 29.8611 44.043C29.2654 44.6387 28.5582 45.1113 27.7798 45.4337C27.0014 45.7561 26.1671 45.9221 25.3246 45.9221C24.4821 45.9221 23.6479 45.7561 22.8695 45.4337C22.0911 45.1113 21.3839 44.6387 20.7881 44.043C20.1924 43.4472 19.7198 42.74 19.3974 41.9616C19.075 41.1832 18.9091 40.349 18.9091 39.5065L25.3246 39.5065H31.7402Z"/>
</mask>
<path d="M31.7402 39.5065C31.7402 40.349 31.5743 41.1832 31.2519 41.9616C30.9295 42.74 30.4569 43.4472 29.8611 44.043C29.2654 44.6387 28.5582 45.1113 27.7798 45.4337C27.0014 45.7561 26.1671 45.9221 25.3246 45.9221C24.4821 45.9221 23.6479 45.7561 22.8695 45.4337C22.0911 45.1113 21.3839 44.6387 20.7881 44.043C20.1924 43.4472 19.7198 42.74 19.3974 41.9616C19.075 41.1832 18.9091 40.349 18.9091 39.5065L25.3246 39.5065H31.7402Z" fill="#E0EFE9" stroke="#7FC8A9" stroke-width="4" mask="url(#path-1-inside-1_272_1103)"/>
<path d="M17.8683 13.5349C20.0249 11.3782 22.95 10.1666 26 10.1666C29.05 10.1666 31.9751 11.3782 34.1317 13.5349C36.2884 15.6916 37.5 18.6166 37.5 21.6666V37.5H14.5V21.6666C14.5 18.6166 15.7116 15.6916 17.8683 13.5349Z" stroke="#7FC8A9" stroke-width="3"/>
<path d="M26.0001 8.66665C22.5523 8.66665 19.2457 10.0363 16.8077 12.4743C14.3697 14.9122 13.0001 18.2188 13.0001 21.6666V39H39.0001V21.6666C39.0001 18.2188 37.6304 14.9122 35.1925 12.4743C32.7545 10.0363 29.4479 8.66665 26.0001 8.66665ZM26.0001 8.66665C26.5747 8.66665 27.1258 8.43837 27.5321 8.03204C27.9385 7.62572 28.1667 7.07462 28.1667 6.49998C28.1667 5.92534 27.9385 5.37424 27.5321 4.96791C27.1258 4.56159 26.5747 4.33331 26.0001 4.33331C25.4254 4.33331 24.8743 4.56159 24.468 4.96791C24.0617 5.37424 23.8334 5.92534 23.8334 6.49998C23.8334 7.07462 24.0617 7.62572 24.468 8.03204C24.8743 8.43837 25.4254 8.66665 26.0001 8.66665ZM43.3334 39H8.66675" stroke="#7FC8A9" stroke-width="3" stroke-linecap="round" stroke-linejoin="round"/>
</svg>
