<svg width="9" height="19" viewBox="0 0 9 19" fill="none" xmlns="http://www.w3.org/2000/svg">
<path d="M8.76446 17.3698L1.84796 10.3423C1.69626 10.1889 1.61118 9.98197 1.61118 9.76628C1.61118 9.55059 1.69626 9.34361 1.84796 9.19028L8.76296 2.16278C8.91457 2.0085 8.99952 1.80084 8.99952 1.58453C8.99952 1.36822 8.91457 1.16056 8.76296 1.00628C8.68889 0.930306 8.60037 0.869927 8.5026 0.828701C8.40484 0.787475 8.29981 0.766237 8.1937 0.766237C8.0876 0.766237 7.98258 0.787475 7.88481 0.828701C7.78705 0.869927 7.69852 0.930306 7.62446 1.00628L0.709456 8.03228C0.255067 8.49506 0.000488281 9.11771 0.000488281 9.76628C0.000488281 10.4148 0.255067 11.0375 0.709456 11.5003L7.62446 18.5263C7.69854 18.6025 7.78716 18.6631 7.88507 18.7044C7.98297 18.7458 8.08817 18.7671 8.19446 18.7671C8.30074 18.7671 8.40594 18.7458 8.50385 18.7044C8.60175 18.6631 8.69037 18.6025 8.76446 18.5263C8.91607 18.372 9.00102 18.1643 9.00102 17.948C9.00102 17.7317 8.91607 17.5241 8.76446 17.3698Z" fill="#7FC8A9"/>
</svg>
