<svg width="43" height="43" viewBox="0 0 43 43" fill="none" xmlns="http://www.w3.org/2000/svg">
<circle cx="21.5" cy="21.5" r="21" stroke="#010101"/>
<g clip-path="url(#clip0_687_52)">
<path d="M21.7701 21.6809L22.4998 21.8269C22.8647 20.7323 23.9515 19.2548 26.0331 19.2548C27.3513 19.2548 28.4697 19.6833 29.2614 20.5422C30.0559 21.4041 30.5636 22.7452 30.5636 24.6495V31.6249H27.053V25.1419C27.053 24.2461 26.8945 23.4337 26.4868 22.8351C26.0628 22.2126 25.4009 21.868 24.5194 21.868C23.1397 21.868 22.3299 22.8062 21.9858 23.6601C21.8432 24.0083 21.818 24.4567 21.818 24.8411V31.625H18.3089L18.3094 31.5002C18.3109 31.1801 18.3128 30.7216 18.315 30.1676C18.3194 29.0596 18.3247 27.5697 18.3282 26.0422C18.3342 23.4136 18.3352 20.6565 18.317 19.5555H21.8181V21.026L21.7701 21.6809ZM11.6879 19.5557H15.1988V31.625H11.6879V19.5557ZM14.9389 13.9053C15.2701 14.2256 15.4668 14.6806 15.4796 15.219C15.4786 15.7359 15.2852 16.1884 14.9469 16.5128C14.6079 16.8379 14.102 17.0544 13.4439 17.0544H13.4161C12.1844 17.0544 11.4365 16.2293 11.4365 15.2149C11.4365 14.6842 11.6358 14.2308 11.9775 13.9086C12.32 13.5857 12.8267 13.375 13.4721 13.375C14.1165 13.375 14.6076 13.5849 14.9389 13.9053Z" stroke="#010101" stroke-width="0.75"/>
</g>
<defs>
<clipPath id="clip0_687_52">
<rect width="19.8787" height="19" fill="white" transform="translate(11.0605 13)"/>
</clipPath>
</defs>
</svg>
