<svg width="20" height="20" viewBox="0 0 20 20" fill="none" xmlns="http://www.w3.org/2000/svg">
<path d="M5 3.667C5 2.95967 5.28099 2.28131 5.78115 1.78115C6.28131 1.28099 6.95967 1 7.667 1H16.333C16.6832 1 17.03 1.06898 17.3536 1.20301C17.6772 1.33704 17.9712 1.53349 18.2189 1.78115C18.4665 2.0288 18.663 2.32281 18.797 2.64638C18.931 2.96996 19 3.31676 19 3.667V12.333C19 12.6832 18.931 13.03 18.797 13.3536C18.663 13.6772 18.4665 13.9712 18.2189 14.2189C17.9712 14.4665 17.6772 14.663 17.3536 14.797C17.03 14.931 16.6832 15 16.333 15H7.667C6.95967 15 6.28131 14.719 5.78115 14.2189C5.28099 13.7187 5 13.0403 5 12.333V3.667Z" stroke="#010101" stroke-linecap="round" stroke-linejoin="round"/>
<path d="M2.012 5.26C1.705 5.43443 1.44965 5.68702 1.2719 5.99211C1.09415 6.2972 1.00034 6.64391 1 6.997V16.997C1 18.097 1.9 18.997 3 18.997H13C13.75 18.997 14.158 18.612 14.5 17.997M9 5H14M9 8H15M9 11H12" stroke="#010101" stroke-linecap="round" stroke-linejoin="round"/>
</svg>
