<svg width="24" height="24" viewBox="0 0 24 24" fill="none" xmlns="http://www.w3.org/2000/svg">
<g clip-path="url(#clip0_741_3458)">
<g clip-path="url(#clip1_741_3458)">
<path d="M13 1C14.3107 1.00098 15.6074 1.27035 16.81 1.79152C18.0127 2.31269 19.0959 3.07462 19.9928 4.03035C20.8898 4.98609 21.5816 6.11538 22.0255 7.34864C22.4694 8.5819 22.6561 9.893 22.574 11.2011C22.4919 12.5093 22.1428 13.7868 21.5483 14.9549C20.9537 16.123 20.1262 17.157 19.1168 17.9931C18.1074 18.8292 16.9374 19.4498 15.6791 19.8165C14.4207 20.1833 13.1006 20.2885 11.8 20.1256V18.916C12.192 18.972 12.592 19.0004 13 19.0012C14.6614 19.0012 16.2854 18.5085 17.6668 17.5855C19.0482 16.6625 20.1248 15.3506 20.7606 13.8157C21.3964 12.2808 21.5627 10.5919 21.2386 8.96244C20.9145 7.333 20.1145 5.83626 18.9397 4.6615C17.7649 3.48674 16.2682 2.68672 14.6388 2.3626C13.0093 2.03849 11.3204 2.20484 9.78546 2.84061C8.25056 3.47639 6.93866 4.55304 6.01566 5.93441C5.09265 7.31578 4.6 8.93984 4.6 10.6012H3.4C3.4 8.05512 4.41143 5.61332 6.21178 3.81297C8.01213 2.01263 10.4539 1.0012 13 1.0012M12.4 4.6012C12.5404 4.60115 12.6764 4.65037 12.7843 4.74027C12.8922 4.83017 12.9651 4.95506 12.9904 5.0932L13 5.2V10.6H16C16.1499 10.5997 16.2945 10.6556 16.4053 10.7566C16.5161 10.8576 16.5851 10.9965 16.5987 11.1458C16.6122 11.2951 16.5693 11.4441 16.4785 11.5634C16.3877 11.6827 16.2555 11.7637 16.108 11.7904L16 11.8H12.4C12.2596 11.8 12.1236 11.7508 12.0157 11.6609C11.9078 11.571 11.8349 11.4461 11.8096 11.308L11.8 11.2V5.2C11.8 5.04087 11.8632 4.88826 11.9757 4.77574C12.0883 4.66321 12.2409 4.6012 12.4 4.6012ZM1 14.2C1 13.5635 1.25286 12.953 1.70294 12.5029C2.15303 12.0529 2.76348 11.8 3.4 11.8H8.2C8.83652 11.8 9.44697 12.0529 9.89706 12.5029C10.3471 12.953 10.6 13.5635 10.6 14.2V20.2C10.6 20.8365 10.3471 21.447 9.89706 21.8971C9.44697 22.3471 8.83652 22.6 8.2 22.6H3.4C2.76348 22.6 2.15303 22.3471 1.70294 21.8971C1.25286 21.447 1 20.8365 1 20.2V14.2ZM7.6 14.2H4C3.84087 14.2 3.68826 14.2632 3.57574 14.3757C3.46321 14.4883 3.4 14.6409 3.4 14.8C3.4 14.9591 3.46321 15.1117 3.57574 15.2243C3.68826 15.3368 3.84087 15.4 4 15.4H7.6C7.75913 15.4 7.91174 15.3368 8.02427 15.2243C8.13679 15.1117 8.2 14.9591 8.2 14.8C8.2 14.6409 8.13679 14.4883 8.02427 14.3757C7.91174 14.2632 7.75913 14.2 7.6 14.2ZM7.6 16.6H4C3.84087 16.6 3.68826 16.6632 3.57574 16.7757C3.46321 16.8883 3.4 17.0409 3.4 17.2C3.4 17.3591 3.46321 17.5117 3.57574 17.6243C3.68826 17.7368 3.84087 17.8 4 17.8H7.6C7.75913 17.8 7.91174 17.7368 8.02427 17.6243C8.13679 17.5117 8.2 17.3591 8.2 17.2C8.2 17.0409 8.13679 16.8883 8.02427 16.7757C7.91174 16.6632 7.75913 16.6 7.6 16.6ZM7.6 19H4C3.84087 19 3.68826 19.0632 3.57574 19.1757C3.46321 19.2883 3.4 19.4409 3.4 19.6C3.4 19.7591 3.46321 19.9117 3.57574 20.0243C3.68826 20.1368 3.84087 20.2 4 20.2H7.6C7.75913 20.2 7.91174 20.1368 8.02427 20.0243C8.13679 19.9117 8.2 19.7591 8.2 19.6C8.2 19.4409 8.13679 19.2883 8.02427 19.1757C7.91174 19.0632 7.75913 19 7.6 19Z" fill="#010101"/>
</g>
</g>
<defs>
<clipPath id="clip0_741_3458">
<rect width="24" height="24" fill="white"/>
</clipPath>
<clipPath id="clip1_741_3458">
<rect width="24" height="24" fill="white"/>
</clipPath>
</defs>
</svg>
