<svg width="9" height="19" viewBox="0 0 9 19" fill="none" xmlns="http://www.w3.org/2000/svg">
<path d="M0.235544 17.3698L7.15204 10.3423C7.30374 10.1889 7.38882 9.98197 7.38882 9.76628C7.38882 9.55059 7.30374 9.34361 7.15204 9.19028L0.237044 2.16278C0.0854311 2.0085 0.000476837 1.80084 0.000476837 1.58453C0.000476837 1.36822 0.0854311 1.16056 0.237044 1.00628C0.31111 0.930305 0.399633 0.869928 0.497399 0.828701C0.595164 0.787476 0.700193 0.766237 0.806295 0.766237C0.912396 0.766237 1.01742 0.787476 1.11519 0.828701C1.21295 0.869928 1.30148 0.930305 1.37554 1.00628L8.29054 8.03228C8.74493 8.49506 8.99951 9.11771 8.99951 9.76628C8.99951 10.4148 8.74493 11.0375 8.29054 11.5003L1.37554 18.5263C1.30146 18.6025 1.21284 18.6631 1.11493 18.7044C1.01703 18.7458 0.911827 18.7671 0.805544 18.7671C0.699262 18.7671 0.594059 18.7458 0.496155 18.7044C0.398251 18.6631 0.309633 18.6025 0.235544 18.5263C0.08393 18.372 -0.00102425 18.1643 -0.00102425 17.948C-0.00102425 17.7317 0.08393 17.5241 0.235544 17.3698Z" fill="#7FC8A9"/>
</svg>
