<svg width="25" height="25" viewBox="0 0 25 25" fill="none" xmlns="http://www.w3.org/2000/svg">
<path d="M6.05221 21.9491C5.70705 21.9394 5.36736 21.8604 5.05332 21.7169C4.73928 21.5733 4.45728 21.3681 4.22409 21.1135C3.99089 20.8588 3.81125 20.5599 3.69583 20.2345C3.58041 19.9091 3.53157 19.5637 3.55221 19.2191C3.54021 17.0661 3.55221 14.9131 3.55221 12.7601C3.55221 12.6275 3.60489 12.5003 3.69865 12.4065C3.79242 12.3127 3.9196 12.2601 4.05221 12.2601C4.18482 12.2601 4.31199 12.3127 4.40576 12.4065C4.49953 12.5003 4.55221 12.6275 4.55221 12.7601C4.55221 14.9601 4.52021 17.1601 4.55221 19.3601C4.56821 20.4671 5.40021 20.9491 6.39021 20.9491H18.8532C19.1678 20.9562 19.4772 20.8674 19.7401 20.6945C20.003 20.5216 20.2071 20.2728 20.3252 19.9811C20.4216 19.6362 20.4555 19.2769 20.4252 18.9201V12.7601C20.4252 12.6275 20.4779 12.5003 20.5717 12.4065C20.6654 12.3127 20.7926 12.2601 20.9252 12.2601C21.0578 12.2601 21.185 12.3127 21.2788 12.4065C21.3725 12.5003 21.4252 12.6275 21.4252 12.7601C21.4252 14.9841 21.5102 17.2251 21.4252 19.4471C21.4166 19.7873 21.3404 20.1225 21.2011 20.4331C21.0617 20.7436 20.862 21.0233 20.6135 21.256C20.3651 21.4886 20.0728 21.6695 19.7538 21.7882C19.4348 21.9068 19.0953 21.9608 18.7552 21.9471L6.05221 21.9491Z" fill="#4A90E2"/>
<path d="M12.8371 4.14042C12.7547 4.05613 12.643 4.00673 12.5251 4.00242C12.5111 4.00242 12.4981 3.99742 12.4831 3.99642C12.4681 3.99542 12.4561 3.99642 12.4421 4.00242C12.3243 4.00673 12.2126 4.05613 12.1301 4.14042L8.46113 7.80942C8.37005 7.90372 8.31965 8.03002 8.32079 8.16112C8.32193 8.29222 8.37452 8.41763 8.46722 8.51033C8.55992 8.60303 8.68533 8.65562 8.81643 8.65676C8.94753 8.6579 9.07383 8.6075 9.16813 8.51642L11.9831 5.70142V16.4434C11.9831 16.576 12.0358 16.7032 12.1296 16.797C12.2233 16.8907 12.3505 16.9434 12.4831 16.9434C12.6157 16.9434 12.7429 16.8907 12.8367 16.797C12.9305 16.7032 12.9831 16.576 12.9831 16.4434V5.70142L15.7991 8.51642C15.8934 8.6075 16.0197 8.6579 16.1508 8.65676C16.2819 8.65562 16.4073 8.60303 16.5 8.51033C16.5927 8.41763 16.6453 8.29222 16.6465 8.16112C16.6476 8.03002 16.5972 7.90372 16.5061 7.80942L12.8371 4.14042Z" fill="#4A90E2"/>
</svg>
