<svg width="12" height="12" viewBox="0 0 12 12" fill="none" xmlns="http://www.w3.org/2000/svg">
<path d="M5.92845 0.00354131C5.64245 0.0308746 5.39512 0.220208 5.29512 0.493541L4.14179 3.94821L0.750453 3.94754C0.593118 3.94703 0.439627 3.99613 0.311812 4.08788C0.183998 4.17963 0.0883678 4.30935 0.0385254 4.45858C-0.0113169 4.60781 -0.0128336 4.76896 0.0341911 4.9191C0.0812158 5.06924 0.174387 5.20074 0.300453 5.29487L3.01845 7.34688L1.79579 11.0162C1.69379 11.3262 1.80312 11.6655 2.06712 11.8569L2.12912 11.8975C2.38445 12.0469 2.70779 12.0329 2.95045 11.8562L6.00179 9.56154L9.06179 11.8335C9.32845 12.0282 9.68579 12.0282 9.94912 11.8369L10.0071 11.7902C10.1162 11.6934 10.1946 11.5667 10.2325 11.4258C10.2704 11.285 10.2662 11.1361 10.2205 10.9975L8.98312 7.34621L11.7018 5.29354C11.8272 5.19943 11.9198 5.06823 11.9665 4.91853C12.0132 4.76884 12.0115 4.60825 11.9618 4.45954C11.9119 4.31039 11.8163 4.18071 11.6887 4.08883C11.561 3.99695 11.4077 3.94752 11.2505 3.94754H7.85912L6.70979 0.505541C6.65834 0.358285 6.5625 0.230608 6.43546 0.140103C6.30842 0.0495986 6.15643 0.00072163 6.00045 0.000207901L5.92845 0.00354131Z" fill="#7FC8A9"/>
</svg>
