<svg width="25" height="24" viewBox="0 0 25 24" fill="none" xmlns="http://www.w3.org/2000/svg">
<path d="M15.75 5L22.05 11.3C22.2737 11.523 22.4513 11.7879 22.5724 12.0796C22.6935 12.3714 22.7559 12.6841 22.7559 13C22.7559 13.3159 22.6935 13.6286 22.5724 13.9204C22.4513 14.2121 22.2737 14.477 22.05 14.7L17.75 19" stroke="#010101" stroke-width="1.2" stroke-linecap="round" stroke-linejoin="round"/>
<path d="M10.336 5.586C9.96101 5.2109 9.45239 5.00011 8.922 5H3.75C3.48478 5 3.23043 5.10536 3.04289 5.29289C2.85536 5.48043 2.75 5.73478 2.75 6V11.172C2.75011 11.7024 2.9609 12.211 3.336 12.586L9.04 18.29C9.49451 18.7416 10.1092 18.9951 10.75 18.9951C11.3908 18.9951 12.0055 18.7416 12.46 18.29L16.04 14.71C16.4916 14.2555 16.7451 13.6408 16.7451 13C16.7451 12.3592 16.4916 11.7445 16.04 11.29L10.336 5.586Z" stroke="#010101" stroke-width="1.2" stroke-linecap="round" stroke-linejoin="round"/>
<path d="M7.25 10C7.52614 10 7.75 9.77614 7.75 9.5C7.75 9.22386 7.52614 9 7.25 9C6.97386 9 6.75 9.22386 6.75 9.5C6.75 9.77614 6.97386 10 7.25 10Z" fill="#010101" stroke="#010101" stroke-width="2" stroke-linecap="round" stroke-linejoin="round"/>
</svg>
