<svg width="43" height="43" viewBox="0 0 43 43" fill="none" xmlns="http://www.w3.org/2000/svg">
<circle cx="21.5" cy="21.5" r="21" stroke="#010101"/>
<g clip-path="url(#clip0_687_47)">
<path d="M15.699 27.2731C13.879 27.2394 12.3122 26.1602 11.5783 24.6103C12.1781 24.6512 12.7821 24.5919 13.3652 24.4333L13.3407 23.7038C11.3878 23.3116 9.87692 21.6951 9.64204 19.6899C10.2316 19.9296 10.8608 20.0635 11.5004 20.0835L12.8089 20.1244L11.7205 19.3969C10.4718 18.5623 9.6512 17.1388 9.6512 15.5253C9.6512 14.8659 9.78829 14.239 10.0354 13.6712C12.5701 16.5456 16.2128 18.4194 20.2971 18.6244L20.7939 18.6494L20.6811 18.1649C20.6021 17.8251 20.5608 17.4701 20.5608 17.1044C20.5608 14.5361 22.6433 12.4536 25.2119 12.4536C26.5499 12.4536 27.7583 13.0182 28.6071 13.9224L28.7492 14.0739L28.953 14.0337C29.7597 13.8748 30.5435 13.6214 31.2885 13.2797C30.893 13.9464 30.3348 14.5062 29.6693 14.9051L29.9063 15.5991C30.5027 15.5284 31.091 15.4063 31.6648 15.2347C31.1762 15.7937 30.625 16.2966 30.0212 16.7332L29.8572 16.8518L29.8663 17.0539C29.8757 17.2638 29.8804 17.4749 29.8804 17.6873C29.8804 24.1676 24.95 31.6123 15.9555 31.6123C13.7394 31.6123 11.6466 31.0915 9.78746 30.1692C12.0984 30.0962 14.2221 29.2764 15.9234 27.9432L16.7536 27.2926L15.699 27.2731Z" stroke="#010101" stroke-width="0.75"/>
</g>
<defs>
<clipPath id="clip0_687_47">
<rect width="24.5" height="20" fill="white" transform="translate(8.25 12)"/>
</clipPath>
</defs>
</svg>
