<svg width="14" height="15" viewBox="0 0 14 15" fill="none" xmlns="http://www.w3.org/2000/svg">
<path d="M9.85686 2.07145C9.85681 1.76923 9.76091 1.47481 9.58295 1.23053C9.40499 0.986252 9.15415 0.804707 8.8665 0.712001C8.57884 0.619296 8.26919 0.620208 7.98209 0.714606C7.69498 0.809004 7.44521 0.992023 7.2687 1.23734C7.09218 1.48267 6.99802 1.77765 6.99974 2.07987C7.00147 2.38209 7.099 2.67598 7.27831 2.91926C7.45762 3.16255 7.70946 3.34271 7.99763 3.43382C8.28579 3.52493 8.59543 3.5223 8.88201 3.42631C8.81444 3.78738 8.70752 4.13996 8.56315 4.47774C8.28886 5.1166 7.89286 5.65488 7.39401 6.21488C7.31838 6.29975 7.27957 6.41119 7.28611 6.52467C7.29264 6.63816 7.34399 6.7444 7.42886 6.82003C7.51373 6.89565 7.62517 6.93446 7.73865 6.92793C7.85214 6.92139 7.95838 6.87004 8.03401 6.78517C8.56372 6.19031 9.02543 5.57317 9.35058 4.81603C9.67686 4.05603 9.85686 3.17888 9.85686 2.07145ZM12.9997 9.35717V6.51603C13.3417 6.07492 13.6295 5.59433 13.8569 5.0846V9.35717C13.8569 9.92549 13.6311 10.4705 13.2292 10.8724C12.8274 11.2743 12.2823 11.5 11.714 11.5H8.31915L4.58486 14.1943C3.92315 14.6715 2.99972 14.1989 2.99972 13.3829V11.5H2.28544C1.71711 11.5 1.17207 11.2743 0.770206 10.8724C0.368343 10.4705 0.142578 9.92549 0.142578 9.35717V3.35717C0.142578 2.78885 0.368343 2.2438 0.770206 1.84194C1.17207 1.44008 1.71711 1.21431 2.28544 1.21431H6.62086C6.49394 1.48222 6.42816 1.775 6.42829 2.07145H2.28544C1.94444 2.07145 1.61742 2.20691 1.3763 2.44803C1.13518 2.68915 0.999721 3.01618 0.999721 3.35717V9.35717C0.999721 9.69816 1.13518 10.0252 1.3763 10.2663C1.61742 10.5074 1.94444 10.6429 2.28544 10.6429H3.85686V13.3835C3.85686 13.4995 3.98829 13.5675 4.08315 13.4989L8.04201 10.6429H11.714C12.055 10.6429 12.382 10.5074 12.6231 10.2663C12.8643 10.0252 12.9997 9.69816 12.9997 9.35717ZM12.4283 0.642883C12.8072 0.642883 13.1705 0.793393 13.4384 1.0613C13.7064 1.32921 13.8569 1.69257 13.8569 2.07145C13.8569 3.17888 13.6769 4.0566 13.3506 4.81603C13.0249 5.57317 12.5637 6.19031 12.034 6.78517C11.9584 6.87004 11.8521 6.92139 11.7387 6.92793C11.6252 6.93446 11.5137 6.89565 11.4289 6.82003C11.344 6.7444 11.2926 6.63816 11.2861 6.52467C11.2796 6.41119 11.3184 6.29975 11.394 6.21488C11.8929 5.65488 12.2883 5.1166 12.5631 4.47774C12.7075 4.13996 12.8144 3.78738 12.882 3.42631C12.7384 3.47469 12.5871 3.49926 12.4283 3.50003C12.0494 3.50003 11.686 3.34952 11.4181 3.08161C11.1502 2.8137 10.9997 2.45034 10.9997 2.07145C10.9997 1.69257 11.1502 1.32921 11.4181 1.0613C11.686 0.793393 12.0494 0.642883 12.4283 0.642883Z" fill="#4A90E2"/>
</svg>
